<?xml version="1.0" encoding="iso-8859-1"?>
<!-- Generator: Adobe Illustrator 18.1.1, SVG Export Plug-In . SVG Version: 6.00 Build 0)  -->
<svg version="1.1" id="Capa_1" xmlns="http://www.w3.org/2000/svg" xmlns:xlink="http://www.w3.org/1999/xlink" x="0px" y="0px"
	 viewBox="0 0 369.946 369.946" style="enable-background:new 0 0 369.946 369.946;" xml:space="preserve">
<g>
	<g>
		<path style="fill:#010002;" d="M275.956,173.212h-70.964l-32.275-63.851c-2.369-4.678-8.407-6.713-13.151-4.314
			c-4.809,2.434-6.743,8.33-4.314,13.139l27.818,55.032h-79.3v-11.331c0-5.394-4.386-9.78-9.78-9.78
			c-5.394,0-9.786,4.386-9.786,9.78v42.233c0,5.388,4.392,9.78,9.786,9.78c5.394,0,9.78-4.386,9.78-9.78v-11.343h81.287
			l-29.805,58.977c-2.434,4.815-0.495,10.711,4.314,13.151c4.66,2.363,10.782,0.37,13.145-4.326l34.268-67.79h68.971
			c5.388,0,9.78-4.386,9.78-9.786S281.344,173.212,275.956,173.212z"/>
		<path style="fill:#010002;" d="M184.973,0C82.981,0,0,82.975,0,184.973s82.975,184.973,184.973,184.973
			s184.973-82.975,184.973-184.973S286.965,0,184.973,0z M275.956,204.723H214.33l-30.956,61.25
			c-3.723,7.345-11.152,11.91-19.392,11.91c-3.443,0-6.737-0.788-9.798-2.333c-10.681-5.412-14.971-18.503-9.577-29.184
			l21.051-41.655h-49.955c-0.31,11.701-9.929,21.123-21.702,21.123c-11.976,0-21.719-9.738-21.719-21.713v-42.234
			c0-11.97,9.744-21.713,21.719-21.713c11.773,0,21.379,9.416,21.702,21.111h47.968l-19.064-37.717
			c-5.4-10.687-1.104-23.766,9.577-29.172c3.025-1.528,6.414-2.339,9.786-2.339c8.246,0,15.675,4.565,19.398,11.916l28.963,57.306
			h63.619c11.976,0,21.713,9.744,21.713,21.725C297.663,194.979,287.931,204.723,275.956,204.723z"/>
	</g>
</g>
<g>
</g>
<g>
</g>
<g>
</g>
<g>
</g>
<g>
</g>
<g>
</g>
<g>
</g>
<g>
</g>
<g>
</g>
<g>
</g>
<g>
</g>
<g>
</g>
<g>
</g>
<g>
</g>
<g>
</g>
</svg>
